<mxfile host="65bd71144e">
    <diagram id="m5sPv2El6O6iViQjPgBH" name="node__define">
        <mxGraphModel dx="3472" dy="1722" grid="1" gridSize="10" guides="1" tooltips="1" connect="1" arrows="1" fold="1" page="1" pageScale="1" pageWidth="827" pageHeight="1169" math="0" shadow="0">
            <root>
                <mxCell id="0"/>
                <mxCell id="1" parent="0"/>
                <mxCell id="45" value="" style="group;" parent="1" vertex="1" connectable="0">
                    <mxGeometry x="337" y="1685" width="160" height="110" as="geometry"/>
                </mxCell>
                <mxCell id="42" value="" style="rounded=1;whiteSpace=wrap;html=1;fillColor=#60a917;fontColor=#ffffff;strokeColor=#2D7600;" parent="45" vertex="1">
                    <mxGeometry width="160" height="110.00000000000001" as="geometry"/>
                </mxCell>
                <mxCell id="43" value="Node::GetParent" style="text;html=1;strokeColor=none;fillColor=none;align=center;verticalAlign=middle;whiteSpace=wrap;rounded=0;" parent="45" vertex="1">
                    <mxGeometry x="7.272727272727273" width="145.45454545454547" height="33" as="geometry"/>
                </mxCell>
                <mxCell id="44" value="" style="strokeWidth=2;html=1;shape=mxgraph.flowchart.terminator;whiteSpace=wrap;fillColor=none;" parent="45" vertex="1">
                    <mxGeometry x="50.909090909090914" y="49.50000000000001" width="58.18181818181819" height="33" as="geometry"/>
                </mxCell>
                <mxCell id="82" value="" style="group" parent="1" vertex="1" connectable="0">
                    <mxGeometry x="-253" y="1165" width="160" height="140" as="geometry"/>
                </mxCell>
                <mxCell id="47" value="" style="rounded=1;whiteSpace=wrap;html=1;fillColor=#60a917;fontColor=#ffffff;strokeColor=#2D7600;" parent="82" vertex="1">
                    <mxGeometry x="3.555555555555556" width="156.44444444444443" height="140" as="geometry"/>
                </mxCell>
                <mxCell id="48" value="Node::GetProperty" style="text;html=1;strokeColor=none;fillColor=none;align=center;verticalAlign=middle;whiteSpace=wrap;rounded=0;" parent="82" vertex="1">
                    <mxGeometry width="160" height="42" as="geometry"/>
                </mxCell>
                <mxCell id="49" value="" style="strokeWidth=2;html=1;shape=mxgraph.flowchart.terminator;whiteSpace=wrap;fillColor=none;" parent="82" vertex="1">
                    <mxGeometry x="53.333333333333336" y="56" width="56.88888888888889" height="42" as="geometry"/>
                </mxCell>
                <mxCell id="110" value="" style="group;" parent="1" vertex="1" connectable="0">
                    <mxGeometry x="337" y="1545" width="160" height="120" as="geometry"/>
                </mxCell>
                <mxCell id="111" value="" style="rounded=1;whiteSpace=wrap;html=1;fillColor=#60a917;fontColor=#ffffff;strokeColor=#2D7600;" parent="110" vertex="1">
                    <mxGeometry x="3.555555555555555" width="156.44444444444443" height="120" as="geometry"/>
                </mxCell>
                <mxCell id="112" value="Node::SetProperty" style="text;html=1;strokeColor=none;fillColor=none;align=center;verticalAlign=middle;whiteSpace=wrap;rounded=0;" parent="110" vertex="1">
                    <mxGeometry width="159.99999999999997" height="36" as="geometry"/>
                </mxCell>
                <mxCell id="113" value="" style="strokeWidth=2;html=1;shape=mxgraph.flowchart.terminator;whiteSpace=wrap;fillColor=none;" parent="110" vertex="1">
                    <mxGeometry x="53.33333333333332" y="48" width="56.88888888888888" height="36" as="geometry"/>
                </mxCell>
                <mxCell id="247" value="" style="group" parent="1" vertex="1" connectable="0">
                    <mxGeometry x="-53" y="1440" width="160" height="355" as="geometry"/>
                </mxCell>
                <mxCell id="224" value="" style="rounded=1;whiteSpace=wrap;html=1;strokeColor=#FFFFFF;strokeWidth=1;fillColor=none;" parent="247" vertex="1">
                    <mxGeometry width="160" height="355" as="geometry"/>
                </mxCell>
                <mxCell id="225" value="Node::Init" style="text;html=1;strokeColor=none;fillColor=none;align=center;verticalAlign=middle;whiteSpace=wrap;rounded=0;" parent="247" vertex="1">
                    <mxGeometry x="20" width="120" height="30" as="geometry"/>
                </mxCell>
                <mxCell id="227" value="Node-&amp;gt;GetSon" style="rounded=1;whiteSpace=wrap;html=1;" parent="247" vertex="1">
                    <mxGeometry x="20" y="55" width="120" height="60" as="geometry"/>
                </mxCell>
                <mxCell id="229" value="Node-&amp;gt;GetProperty" style="rounded=1;whiteSpace=wrap;html=1;" parent="247" vertex="1">
                    <mxGeometry x="20" y="165" width="120" height="60" as="geometry"/>
                </mxCell>
                <mxCell id="226" value="" style="edgeStyle=none;html=1;" parent="247" source="227" target="229" edge="1">
                    <mxGeometry relative="1" as="geometry"/>
                </mxCell>
                <mxCell id="230" value="CheckPathName" style="rounded=1;whiteSpace=wrap;html=1;" parent="247" vertex="1">
                    <mxGeometry x="20" y="275" width="120" height="60" as="geometry"/>
                </mxCell>
                <mxCell id="228" value="" style="edgeStyle=none;html=1;" parent="247" source="229" target="230" edge="1">
                    <mxGeometry relative="1" as="geometry"/>
                </mxCell>
                <mxCell id="258" value="" style="group" parent="1" vertex="1" connectable="0">
                    <mxGeometry x="-1323" y="560" width="160" height="1235" as="geometry"/>
                </mxCell>
                <mxCell id="231" value="" style="rounded=1;whiteSpace=wrap;html=1;strokeColor=#FFFFFF;strokeWidth=1;fillColor=none;" parent="258" vertex="1">
                    <mxGeometry width="160" height="1235" as="geometry"/>
                </mxCell>
                <mxCell id="232" value="Node::CheckMap" style="text;html=1;strokeColor=none;fillColor=none;align=center;verticalAlign=middle;whiteSpace=wrap;rounded=0;" parent="258" vertex="1">
                    <mxGeometry x="20" width="120" height="30" as="geometry"/>
                </mxCell>
                <mxCell id="234" value="Node-&amp;gt;GetAttr" style="rounded=1;whiteSpace=wrap;html=1;" parent="258" vertex="1">
                    <mxGeometry x="20" y="55" width="120" height="60" as="geometry"/>
                </mxCell>
                <mxCell id="236" value="Map-&amp;gt;Reset" style="rounded=1;whiteSpace=wrap;html=1;" parent="258" vertex="1">
                    <mxGeometry x="20" y="165" width="120" height="60" as="geometry"/>
                </mxCell>
                <mxCell id="233" value="" style="edgeStyle=none;html=1;" parent="258" source="234" target="236" edge="1">
                    <mxGeometry relative="1" as="geometry"/>
                </mxCell>
                <mxCell id="238" value="Map-&amp;gt;GetProperty" style="rounded=1;whiteSpace=wrap;html=1;" parent="258" vertex="1">
                    <mxGeometry x="20" y="275" width="120" height="60" as="geometry"/>
                </mxCell>
                <mxCell id="235" value="" style="edgeStyle=none;html=1;" parent="258" source="236" target="238" edge="1">
                    <mxGeometry relative="1" as="geometry"/>
                </mxCell>
                <mxCell id="239" value="Node-&amp;gt;GetArrayInfo" style="rounded=1;whiteSpace=wrap;html=1;" parent="258" vertex="1">
                    <mxGeometry x="20" y="385" width="120" height="60" as="geometry"/>
                </mxCell>
                <mxCell id="237" value="" style="edgeStyle=none;html=1;" parent="258" source="238" target="239" edge="1">
                    <mxGeometry relative="1" as="geometry"/>
                </mxCell>
                <mxCell id="240" value="Node-&amp;gt;GetSingleAttr" style="rounded=1;whiteSpace=wrap;html=1;" parent="258" vertex="1">
                    <mxGeometry x="20" y="495" width="120" height="60" as="geometry"/>
                </mxCell>
                <mxCell id="249" value="" style="edgeStyle=none;html=1;" parent="258" source="239" target="240" edge="1">
                    <mxGeometry relative="1" as="geometry"/>
                </mxCell>
                <mxCell id="241" value="get_el_coords" style="rounded=1;whiteSpace=wrap;html=1;" parent="258" vertex="1">
                    <mxGeometry x="20" y="605" width="120" height="60" as="geometry"/>
                </mxCell>
                <mxCell id="250" value="" style="edgeStyle=none;html=1;" parent="258" source="240" target="241" edge="1">
                    <mxGeometry relative="1" as="geometry"/>
                </mxCell>
                <mxCell id="242" value="get_az_coords" style="rounded=1;whiteSpace=wrap;html=1;" parent="258" vertex="1">
                    <mxGeometry x="20" y="715" width="120" height="60" as="geometry"/>
                </mxCell>
                <mxCell id="251" value="" style="edgeStyle=none;html=1;" parent="258" source="241" target="242" edge="1">
                    <mxGeometry relative="1" as="geometry"/>
                </mxCell>
                <mxCell id="243" value="getBidimensionalDim" style="rounded=1;whiteSpace=wrap;html=1;" parent="258" vertex="1">
                    <mxGeometry x="20" y="825" width="120" height="60" as="geometry"/>
                </mxCell>
                <mxCell id="252" value="" style="edgeStyle=none;html=1;" parent="258" source="242" target="243" edge="1">
                    <mxGeometry relative="1" as="geometry"/>
                </mxCell>
                <mxCell id="244" value="IDL_rv_set_geo_par" style="rounded=1;whiteSpace=wrap;html=1;" parent="258" vertex="1">
                    <mxGeometry x="20" y="935" width="120" height="60" as="geometry"/>
                </mxCell>
                <mxCell id="253" value="" style="edgeStyle=none;html=1;" parent="258" source="243" target="244" edge="1">
                    <mxGeometry relative="1" as="geometry"/>
                </mxCell>
                <mxCell id="245" value="Map-&amp;gt;SetProperty" style="rounded=1;whiteSpace=wrap;html=1;" parent="258" vertex="1">
                    <mxGeometry x="20" y="1045" width="120" height="60" as="geometry"/>
                </mxCell>
                <mxCell id="254" value="" style="edgeStyle=none;html=1;" parent="258" source="244" target="245" edge="1">
                    <mxGeometry relative="1" as="geometry"/>
                </mxCell>
                <mxCell id="246" value="Map-&amp;gt;CheckProperty" style="rounded=1;whiteSpace=wrap;html=1;" parent="258" vertex="1">
                    <mxGeometry x="20" y="1155" width="120" height="60" as="geometry"/>
                </mxCell>
                <mxCell id="255" value="" style="edgeStyle=none;html=1;" parent="258" source="245" target="246" edge="1">
                    <mxGeometry relative="1" as="geometry"/>
                </mxCell>
                <mxCell id="259" value="" style="group" parent="1" vertex="1" connectable="0">
                    <mxGeometry x="-473" y="560" width="160" height="685" as="geometry"/>
                </mxCell>
                <mxCell id="213" value="" style="rounded=1;whiteSpace=wrap;html=1;strokeColor=#FFFFFF;strokeWidth=1;fillColor=none;" parent="259" vertex="1">
                    <mxGeometry width="160" height="685" as="geometry"/>
                </mxCell>
                <mxCell id="214" value="Node::CleanUp" style="text;html=1;strokeColor=none;fillColor=none;align=center;verticalAlign=middle;whiteSpace=wrap;rounded=0;" parent="259" vertex="1">
                    <mxGeometry x="20" width="120" height="30" as="geometry"/>
                </mxCell>
                <mxCell id="216" value="Node-&amp;gt;GetRoot" style="rounded=1;whiteSpace=wrap;html=1;" parent="259" vertex="1">
                    <mxGeometry x="20" y="55" width="120" height="60" as="geometry"/>
                </mxCell>
                <mxCell id="218" value="Node-&amp;gt;GetSons" style="rounded=1;whiteSpace=wrap;html=1;" parent="259" vertex="1">
                    <mxGeometry x="20" y="165" width="120" height="60" as="geometry"/>
                </mxCell>
                <mxCell id="215" value="" style="edgeStyle=none;html=1;" parent="259" source="216" target="218" edge="1">
                    <mxGeometry relative="1" as="geometry"/>
                </mxCell>
                <mxCell id="220" value="Node-&amp;gt;GetProperty" style="rounded=1;whiteSpace=wrap;html=1;" parent="259" vertex="1">
                    <mxGeometry x="20" y="275" width="120" height="60" as="geometry"/>
                </mxCell>
                <mxCell id="217" value="" style="edgeStyle=none;html=1;" parent="259" source="218" target="220" edge="1">
                    <mxGeometry relative="1" as="geometry"/>
                </mxCell>
                <mxCell id="221" value="FILE_DELETE" style="rounded=1;whiteSpace=wrap;html=1;" parent="259" vertex="1">
                    <mxGeometry x="20" y="385" width="120" height="60" as="geometry"/>
                </mxCell>
                <mxCell id="219" value="" style="edgeStyle=none;html=1;" parent="259" source="220" target="221" edge="1">
                    <mxGeometry relative="1" as="geometry"/>
                </mxCell>
                <mxCell id="222" value="Node-&amp;gt;Remove" style="rounded=1;whiteSpace=wrap;html=1;" parent="259" vertex="1">
                    <mxGeometry x="20" y="495" width="120" height="60" as="geometry"/>
                </mxCell>
                <mxCell id="256" value="" style="edgeStyle=none;html=1;" parent="259" source="221" target="222" edge="1">
                    <mxGeometry relative="1" as="geometry"/>
                </mxCell>
                <mxCell id="223" value="Node-&amp;gt;IDL_Container::Cleanup" style="rounded=1;whiteSpace=wrap;html=1;" parent="259" vertex="1">
                    <mxGeometry x="20" y="605" width="120" height="60" as="geometry"/>
                </mxCell>
                <mxCell id="257" value="" style="edgeStyle=none;html=1;" parent="259" source="222" target="223" edge="1">
                    <mxGeometry relative="1" as="geometry"/>
                </mxCell>
                <mxCell id="260" value="" style="group" parent="1" vertex="1" connectable="0">
                    <mxGeometry x="-673" y="1440" width="160" height="355" as="geometry"/>
                </mxCell>
                <mxCell id="178" value="" style="rounded=1;whiteSpace=wrap;html=1;strokeColor=#FFFFFF;strokeWidth=1;fillColor=none;" parent="260" vertex="1">
                    <mxGeometry width="160" height="355" as="geometry"/>
                </mxCell>
                <mxCell id="179" value="Node::GetSon" style="text;html=1;strokeColor=none;fillColor=none;align=center;verticalAlign=middle;whiteSpace=wrap;rounded=0;" parent="260" vertex="1">
                    <mxGeometry x="20" width="120" height="30" as="geometry"/>
                </mxCell>
                <mxCell id="181" value="GetSharedNode" style="rounded=1;whiteSpace=wrap;html=1;" parent="260" vertex="1">
                    <mxGeometry x="20" y="55" width="120" height="60" as="geometry"/>
                </mxCell>
                <mxCell id="182" value="Node-&amp;gt;GetSons" style="rounded=1;whiteSpace=wrap;html=1;" parent="260" vertex="1">
                    <mxGeometry x="20" y="165" width="120" height="60" as="geometry"/>
                </mxCell>
                <mxCell id="180" value="" style="edgeStyle=none;html=1;" parent="260" source="181" target="182" edge="1">
                    <mxGeometry relative="1" as="geometry"/>
                </mxCell>
                <mxCell id="183" value="Node-&amp;gt;GetProperty" style="rounded=1;whiteSpace=wrap;html=1;" parent="260" vertex="1">
                    <mxGeometry x="20" y="275" width="120" height="60" as="geometry"/>
                </mxCell>
                <mxCell id="207" value="" style="edgeStyle=none;html=1;" parent="260" source="182" target="183" edge="1">
                    <mxGeometry relative="1" as="geometry"/>
                </mxCell>
                <mxCell id="261" value="" style="group" parent="1" vertex="1" connectable="0">
                    <mxGeometry x="-473" y="1330" width="160" height="465" as="geometry"/>
                </mxCell>
                <mxCell id="163" value="" style="rounded=1;whiteSpace=wrap;html=1;strokeColor=#FFFFFF;strokeWidth=1;fillColor=none;" parent="261" vertex="1">
                    <mxGeometry width="160" height="465" as="geometry"/>
                </mxCell>
                <mxCell id="164" value="Node::RemoveAttr" style="text;html=1;strokeColor=none;fillColor=none;align=center;verticalAlign=middle;whiteSpace=wrap;rounded=0;" parent="261" vertex="1">
                    <mxGeometry x="20" width="120" height="30" as="geometry"/>
                </mxCell>
                <mxCell id="166" value="Node-&amp;gt;GetMyAttr" style="rounded=1;whiteSpace=wrap;html=1;" parent="261" vertex="1">
                    <mxGeometry x="20" y="55" width="120" height="60" as="geometry"/>
                </mxCell>
                <mxCell id="167" value="FILE_DELETE" style="rounded=1;whiteSpace=wrap;html=1;" parent="261" vertex="1">
                    <mxGeometry x="20" y="165" width="120" height="60" as="geometry"/>
                </mxCell>
                <mxCell id="165" value="" style="edgeStyle=none;html=1;" parent="261" source="166" target="167" edge="1">
                    <mxGeometry relative="1" as="geometry"/>
                </mxCell>
                <mxCell id="168" value="Node-&amp;gt;Remove" style="rounded=1;whiteSpace=wrap;html=1;" parent="261" vertex="1">
                    <mxGeometry x="20" y="275" width="120" height="60" as="geometry"/>
                </mxCell>
                <mxCell id="208" value="" style="edgeStyle=none;html=1;" parent="261" source="167" target="168" edge="1">
                    <mxGeometry relative="1" as="geometry"/>
                </mxCell>
                <mxCell id="169" value="obj_destroy" style="rounded=1;whiteSpace=wrap;html=1;" parent="261" vertex="1">
                    <mxGeometry x="20" y="385" width="120" height="60" as="geometry"/>
                </mxCell>
                <mxCell id="209" value="" style="edgeStyle=none;html=1;" parent="261" source="168" target="169" edge="1">
                    <mxGeometry relative="1" as="geometry"/>
                </mxCell>
                <mxCell id="262" value="" style="group" parent="1" vertex="1" connectable="0">
                    <mxGeometry x="-253" y="1330" width="160" height="465" as="geometry"/>
                </mxCell>
                <mxCell id="156" value="" style="rounded=1;whiteSpace=wrap;html=1;strokeColor=#FFFFFF;strokeWidth=1;fillColor=none;" parent="262" vertex="1">
                    <mxGeometry width="160" height="465" as="geometry"/>
                </mxCell>
                <mxCell id="157" value="Node::Save" style="text;html=1;strokeColor=none;fillColor=none;align=center;verticalAlign=middle;whiteSpace=wrap;rounded=0;" parent="262" vertex="1">
                    <mxGeometry x="20" width="120" height="30" as="geometry"/>
                </mxCell>
                <mxCell id="159" value="Node-&amp;gt;QuantizeData" style="rounded=1;whiteSpace=wrap;html=1;" parent="262" vertex="1">
                    <mxGeometry x="20" y="55" width="120" height="60" as="geometry"/>
                </mxCell>
                <mxCell id="160" value="Attr-&amp;gt;GetProperty" style="rounded=1;whiteSpace=wrap;html=1;" parent="262" vertex="1">
                    <mxGeometry x="20" y="165" width="120" height="60" as="geometry"/>
                </mxCell>
                <mxCell id="158" value="" style="edgeStyle=none;html=1;" parent="262" source="159" target="160" edge="1">
                    <mxGeometry relative="1" as="geometry"/>
                </mxCell>
                <mxCell id="161" value="Attr-&amp;gt;SetProperty" style="rounded=1;whiteSpace=wrap;html=1;" parent="262" vertex="1">
                    <mxGeometry x="20" y="275" width="120" height="60" as="geometry"/>
                </mxCell>
                <mxCell id="210" value="" style="edgeStyle=none;html=1;" parent="262" source="160" target="161" edge="1">
                    <mxGeometry relative="1" as="geometry"/>
                </mxCell>
                <mxCell id="162" value="Node-&amp;gt;Get" style="rounded=1;whiteSpace=wrap;html=1;" parent="262" vertex="1">
                    <mxGeometry x="20" y="385" width="120" height="60" as="geometry"/>
                </mxCell>
                <mxCell id="211" value="" style="edgeStyle=none;html=1;" parent="262" source="161" target="162" edge="1">
                    <mxGeometry relative="1" as="geometry"/>
                </mxCell>
                <mxCell id="263" value="" style="group" parent="1" vertex="1" connectable="0">
                    <mxGeometry x="-1103" y="560" width="160" height="1245" as="geometry"/>
                </mxCell>
                <mxCell id="137" value="" style="rounded=1;whiteSpace=wrap;html=1;strokeColor=#FFFFFF;strokeWidth=1;fillColor=none;" parent="263" vertex="1">
                    <mxGeometry width="160" height="1245" as="geometry"/>
                </mxCell>
                <mxCell id="138" value="Node::QuantizeData" style="text;html=1;strokeColor=none;fillColor=none;align=center;verticalAlign=middle;whiteSpace=wrap;rounded=0;" parent="263" vertex="1">
                    <mxGeometry x="20" width="120" height="30" as="geometry"/>
                </mxCell>
                <mxCell id="140" value="Node-&amp;gt;GetSingleAttr" style="rounded=1;whiteSpace=wrap;html=1;" parent="263" vertex="1">
                    <mxGeometry x="20" y="55" width="120" height="60" as="geometry"/>
                </mxCell>
                <mxCell id="142" value="GetArrayDescName" style="rounded=1;whiteSpace=wrap;html=1;" parent="263" vertex="1">
                    <mxGeometry x="20" y="165" width="120" height="60" as="geometry"/>
                </mxCell>
                <mxCell id="139" value="" style="edgeStyle=none;html=1;" parent="263" source="140" target="142" edge="1">
                    <mxGeometry relative="1" as="geometry"/>
                </mxCell>
                <mxCell id="144" value="GetAttrValue" style="rounded=1;whiteSpace=wrap;html=1;" parent="263" vertex="1">
                    <mxGeometry x="20" y="275" width="120" height="60" as="geometry"/>
                </mxCell>
                <mxCell id="141" value="" style="edgeStyle=none;html=1;" parent="263" source="142" target="144" edge="1">
                    <mxGeometry relative="1" as="geometry"/>
                </mxCell>
                <mxCell id="145" value="" style="edgeStyle=none;html=1;" parent="263" source="146" edge="1">
                    <mxGeometry relative="1" as="geometry">
                        <mxPoint x="80" y="495" as="targetPoint"/>
                    </mxGeometry>
                </mxCell>
                <mxCell id="146" value="Attr-&amp;gt;GetProperty" style="rounded=1;whiteSpace=wrap;html=1;" parent="263" vertex="1">
                    <mxGeometry x="20" y="385" width="120" height="60" as="geometry"/>
                </mxCell>
                <mxCell id="143" value="" style="edgeStyle=none;html=1;" parent="263" source="144" target="146" edge="1">
                    <mxGeometry relative="1" as="geometry"/>
                </mxCell>
                <mxCell id="148" value="Node-&amp;gt;GetAttr" style="rounded=1;whiteSpace=wrap;html=1;" parent="263" vertex="1">
                    <mxGeometry x="20" y="495" width="120" height="60" as="geometry"/>
                </mxCell>
                <mxCell id="150" value="GetValueDescName" style="rounded=1;whiteSpace=wrap;html=1;" parent="263" vertex="1">
                    <mxGeometry x="20" y="605" width="120" height="60" as="geometry"/>
                </mxCell>
                <mxCell id="147" value="" style="edgeStyle=none;html=1;" parent="263" source="148" target="150" edge="1">
                    <mxGeometry relative="1" as="geometry"/>
                </mxCell>
                <mxCell id="151" value="QuantizeData" style="rounded=1;whiteSpace=wrap;html=1;" parent="263" vertex="1">
                    <mxGeometry x="20" y="715" width="120" height="60" as="geometry"/>
                </mxCell>
                <mxCell id="149" value="" style="edgeStyle=none;html=1;" parent="263" source="150" target="151" edge="1">
                    <mxGeometry relative="1" as="geometry"/>
                </mxCell>
                <mxCell id="152" value="Node-&amp;gt;AddAttr" style="rounded=1;whiteSpace=wrap;html=1;" parent="263" vertex="1">
                    <mxGeometry x="20" y="825" width="120" height="60" as="geometry"/>
                </mxCell>
                <mxCell id="153" value="Node-&amp;gt;AddAttr" style="rounded=1;whiteSpace=wrap;html=1;" parent="263" vertex="1">
                    <mxGeometry x="20" y="935" width="120" height="60" as="geometry"/>
                </mxCell>
                <mxCell id="154" value="Attr-&amp;gt;SetProperty" style="rounded=1;whiteSpace=wrap;html=1;" parent="263" vertex="1">
                    <mxGeometry x="20" y="1045" width="120" height="60" as="geometry"/>
                </mxCell>
                <mxCell id="155" value="RemoveTags" style="rounded=1;whiteSpace=wrap;html=1;" parent="263" vertex="1">
                    <mxGeometry x="20" y="1155" width="120" height="60" as="geometry"/>
                </mxCell>
                <mxCell id="264" value="" style="group" parent="1" vertex="1" connectable="0">
                    <mxGeometry x="137" y="560" width="160" height="255" as="geometry"/>
                </mxCell>
                <mxCell id="57" value="" style="rounded=1;whiteSpace=wrap;html=1;strokeColor=#FFFFFF;strokeWidth=1;fillColor=none;" parent="264" vertex="1">
                    <mxGeometry width="160" height="255" as="geometry"/>
                </mxCell>
                <mxCell id="58" value="Node::AddAttr" style="text;html=1;strokeColor=none;fillColor=none;align=center;verticalAlign=middle;whiteSpace=wrap;rounded=0;" parent="264" vertex="1">
                    <mxGeometry x="20" width="120" height="30" as="geometry"/>
                </mxCell>
                <mxCell id="59" value="Node-&amp;gt;GetMyAttr" style="rounded=1;whiteSpace=wrap;html=1;" parent="264" vertex="1">
                    <mxGeometry x="20" y="55" width="120" height="60" as="geometry"/>
                </mxCell>
                <mxCell id="61" value="Attr-&amp;gt;SetProperty" style="rounded=1;whiteSpace=wrap;html=1;" parent="264" vertex="1">
                    <mxGeometry x="20" y="165" width="120" height="60" as="geometry"/>
                </mxCell>
                <mxCell id="62" value="" style="edgeStyle=none;html=1;" parent="264" source="59" target="61" edge="1">
                    <mxGeometry relative="1" as="geometry"/>
                </mxCell>
                <mxCell id="265" value="" style="group" parent="1" vertex="1" connectable="0">
                    <mxGeometry x="-893" y="560" width="160" height="795" as="geometry"/>
                </mxCell>
                <mxCell id="64" value="" style="rounded=1;whiteSpace=wrap;html=1;strokeColor=#FFFFFF;strokeWidth=1;fillColor=none;" parent="265" vertex="1">
                    <mxGeometry width="160" height="795" as="geometry"/>
                </mxCell>
                <mxCell id="65" value="Node::GetValues" style="text;html=1;strokeColor=none;fillColor=none;align=center;verticalAlign=middle;whiteSpace=wrap;rounded=0;" parent="265" vertex="1">
                    <mxGeometry x="20" width="120" height="30" as="geometry"/>
                </mxCell>
                <mxCell id="66" value="Node-&amp;gt;GetAttr" style="rounded=1;whiteSpace=wrap;html=1;" parent="265" vertex="1">
                    <mxGeometry x="20" y="55" width="120" height="60" as="geometry"/>
                </mxCell>
                <mxCell id="67" value="GetAttrValue" style="rounded=1;whiteSpace=wrap;html=1;" parent="265" vertex="1">
                    <mxGeometry x="20" y="165" width="120" height="60" as="geometry"/>
                </mxCell>
                <mxCell id="68" value="" style="edgeStyle=none;html=1;" parent="265" source="66" target="67" edge="1">
                    <mxGeometry relative="1" as="geometry"/>
                </mxCell>
                <mxCell id="69" value="GetAttrValue" style="rounded=1;whiteSpace=wrap;html=1;" parent="265" vertex="1">
                    <mxGeometry x="20" y="275" width="120" height="60" as="geometry"/>
                </mxCell>
                <mxCell id="70" value="" style="edgeStyle=none;html=1;" parent="265" source="67" target="69" edge="1">
                    <mxGeometry relative="1" as="geometry"/>
                </mxCell>
                <mxCell id="78" value="" style="edgeStyle=none;html=1;" parent="265" source="71" edge="1">
                    <mxGeometry relative="1" as="geometry">
                        <mxPoint x="80" y="495" as="targetPoint"/>
                    </mxGeometry>
                </mxCell>
                <mxCell id="71" value="Node-&amp;gt;GetSingleAttr" style="rounded=1;whiteSpace=wrap;html=1;" parent="265" vertex="1">
                    <mxGeometry x="20" y="385" width="120" height="60" as="geometry"/>
                </mxCell>
                <mxCell id="72" value="" style="edgeStyle=none;html=1;" parent="265" source="69" target="71" edge="1">
                    <mxGeometry relative="1" as="geometry"/>
                </mxCell>
                <mxCell id="75" value="GetAttrValue" style="rounded=1;whiteSpace=wrap;html=1;" parent="265" vertex="1">
                    <mxGeometry x="20" y="495" width="120" height="60" as="geometry"/>
                </mxCell>
                <mxCell id="76" value="CreateArrayValues" style="rounded=1;whiteSpace=wrap;html=1;" parent="265" vertex="1">
                    <mxGeometry x="20" y="605" width="120" height="60" as="geometry"/>
                </mxCell>
                <mxCell id="80" value="" style="edgeStyle=none;html=1;" parent="265" source="75" target="76" edge="1">
                    <mxGeometry relative="1" as="geometry"/>
                </mxCell>
                <mxCell id="77" value="Node-&amp;gt;AddAttr" style="rounded=1;whiteSpace=wrap;html=1;" parent="265" vertex="1">
                    <mxGeometry x="20" y="715" width="120" height="60" as="geometry"/>
                </mxCell>
                <mxCell id="81" value="" style="edgeStyle=none;html=1;" parent="265" source="76" target="77" edge="1">
                    <mxGeometry relative="1" as="geometry"/>
                </mxCell>
                <mxCell id="266" value="" style="group" parent="1" vertex="1" connectable="0">
                    <mxGeometry x="137" y="1550" width="160" height="245" as="geometry"/>
                </mxCell>
                <mxCell id="83" value="" style="rounded=1;whiteSpace=wrap;html=1;strokeColor=#FFFFFF;strokeWidth=1;fillColor=none;" parent="266" vertex="1">
                    <mxGeometry width="160" height="245" as="geometry"/>
                </mxCell>
                <mxCell id="84" value="Node::GetArrayInfo" style="text;html=1;strokeColor=none;fillColor=none;align=center;verticalAlign=middle;whiteSpace=wrap;rounded=0;" parent="266" vertex="1">
                    <mxGeometry x="20" width="120" height="30" as="geometry"/>
                </mxCell>
                <mxCell id="85" value="Node-&amp;gt;GetSingleAttr" style="rounded=1;whiteSpace=wrap;html=1;" parent="266" vertex="1">
                    <mxGeometry x="20" y="55" width="120" height="60" as="geometry"/>
                </mxCell>
                <mxCell id="87" value="GetAttrValue" style="rounded=1;whiteSpace=wrap;html=1;" parent="266" vertex="1">
                    <mxGeometry x="20" y="165" width="120" height="60" as="geometry"/>
                </mxCell>
                <mxCell id="93" value="" style="edgeStyle=none;html=1;" parent="266" source="85" target="87" edge="1">
                    <mxGeometry relative="1" as="geometry"/>
                </mxCell>
                <mxCell id="267" value="" style="group" parent="1" vertex="1" connectable="0">
                    <mxGeometry x="-683" y="560" width="160" height="795" as="geometry"/>
                </mxCell>
                <mxCell id="94" value="" style="rounded=1;whiteSpace=wrap;html=1;strokeColor=#FFFFFF;strokeWidth=1;fillColor=none;" parent="267" vertex="1">
                    <mxGeometry width="160" height="795" as="geometry"/>
                </mxCell>
                <mxCell id="95" value="Node::GetArray" style="text;html=1;strokeColor=none;fillColor=none;align=center;verticalAlign=middle;whiteSpace=wrap;rounded=0;" parent="267" vertex="1">
                    <mxGeometry x="20" width="120" height="30" as="geometry"/>
                </mxCell>
                <mxCell id="97" value="Node-&amp;gt;GetArrayInfo" style="rounded=1;whiteSpace=wrap;html=1;" parent="267" vertex="1">
                    <mxGeometry x="20" y="55" width="120" height="60" as="geometry"/>
                </mxCell>
                <mxCell id="98" value="Node-&amp;gt;GetSingleAttr" style="rounded=1;whiteSpace=wrap;html=1;" parent="267" vertex="1">
                    <mxGeometry x="20" y="165" width="120" height="60" as="geometry"/>
                </mxCell>
                <mxCell id="96" value="" style="edgeStyle=none;html=1;" parent="267" source="97" target="98" edge="1">
                    <mxGeometry relative="1" as="geometry"/>
                </mxCell>
                <mxCell id="99" value="GetAttrValue" style="rounded=1;whiteSpace=wrap;html=1;" parent="267" vertex="1">
                    <mxGeometry x="20" y="275" width="120" height="60" as="geometry"/>
                </mxCell>
                <mxCell id="105" value="" style="edgeStyle=none;html=1;" parent="267" source="98" target="99" edge="1">
                    <mxGeometry relative="1" as="geometry"/>
                </mxCell>
                <mxCell id="100" value="Node-&amp;gt;GetValues" style="rounded=1;whiteSpace=wrap;html=1;" parent="267" vertex="1">
                    <mxGeometry x="20" y="385" width="120" height="60" as="geometry"/>
                </mxCell>
                <mxCell id="106" value="" style="edgeStyle=none;html=1;" parent="267" source="99" target="100" edge="1">
                    <mxGeometry relative="1" as="geometry"/>
                </mxCell>
                <mxCell id="101" value="count_invalid_values" style="rounded=1;whiteSpace=wrap;html=1;" parent="267" vertex="1">
                    <mxGeometry x="20" y="495" width="120" height="60" as="geometry"/>
                </mxCell>
                <mxCell id="107" value="" style="edgeStyle=none;html=1;" parent="267" source="100" target="101" edge="1">
                    <mxGeometry relative="1" as="geometry"/>
                </mxCell>
                <mxCell id="102" value="RemoveTags" style="rounded=1;whiteSpace=wrap;html=1;" parent="267" vertex="1">
                    <mxGeometry x="20" y="605" width="120" height="60" as="geometry"/>
                </mxCell>
                <mxCell id="108" value="" style="edgeStyle=none;html=1;" parent="267" source="101" target="102" edge="1">
                    <mxGeometry relative="1" as="geometry"/>
                </mxCell>
                <mxCell id="103" value="Node-&amp;gt;QuantizeData" style="rounded=1;whiteSpace=wrap;html=1;" parent="267" vertex="1">
                    <mxGeometry x="20" y="715" width="120" height="60" as="geometry"/>
                </mxCell>
                <mxCell id="109" value="" style="edgeStyle=none;html=1;" parent="267" source="102" target="103" edge="1">
                    <mxGeometry relative="1" as="geometry"/>
                </mxCell>
                <mxCell id="268" value="" style="group" parent="1" vertex="1" connectable="0">
                    <mxGeometry x="-253" y="560" width="160" height="575" as="geometry"/>
                </mxCell>
                <mxCell id="114" value="" style="rounded=1;whiteSpace=wrap;html=1;strokeColor=#FFFFFF;strokeWidth=1;fillColor=none;" parent="268" vertex="1">
                    <mxGeometry width="160" height="575" as="geometry"/>
                </mxCell>
                <mxCell id="115" value="Node::ReplaceAttrValues" style="text;html=1;strokeColor=none;fillColor=none;align=center;verticalAlign=middle;whiteSpace=wrap;rounded=0;" parent="268" vertex="1">
                    <mxGeometry x="10" width="140" height="30" as="geometry"/>
                </mxCell>
                <mxCell id="117" value="Node-&amp;gt;GetMyAttr" style="rounded=1;whiteSpace=wrap;html=1;" parent="268" vertex="1">
                    <mxGeometry x="20" y="55" width="120" height="60" as="geometry"/>
                </mxCell>
                <mxCell id="118" value="ReplaceTags" style="rounded=1;whiteSpace=wrap;html=1;" parent="268" vertex="1">
                    <mxGeometry x="20" y="165" width="120" height="60" as="geometry"/>
                </mxCell>
                <mxCell id="116" value="" style="edgeStyle=none;html=1;" parent="268" source="117" target="118" edge="1">
                    <mxGeometry relative="1" as="geometry"/>
                </mxCell>
                <mxCell id="120" value="CreateAttrStruct" style="rounded=1;whiteSpace=wrap;html=1;" parent="268" vertex="1">
                    <mxGeometry x="20" y="275" width="120" height="60" as="geometry"/>
                </mxCell>
                <mxCell id="123" value="" style="edgeStyle=none;html=1;" parent="268" source="118" target="120" edge="1">
                    <mxGeometry relative="1" as="geometry"/>
                </mxCell>
                <mxCell id="121" value="Attr-&amp;gt;SetProperty" style="rounded=1;whiteSpace=wrap;html=1;" parent="268" vertex="1">
                    <mxGeometry x="20" y="385" width="120" height="60" as="geometry"/>
                </mxCell>
                <mxCell id="124" value="" style="edgeStyle=none;html=1;" parent="268" source="120" target="121" edge="1">
                    <mxGeometry relative="1" as="geometry"/>
                </mxCell>
                <mxCell id="122" value="Node-&amp;gt;AddAttr" style="rounded=1;whiteSpace=wrap;html=1;" parent="268" vertex="1">
                    <mxGeometry x="20" y="495" width="120" height="60" as="geometry"/>
                </mxCell>
                <mxCell id="125" value="" style="edgeStyle=none;html=1;" parent="268" source="121" target="122" edge="1">
                    <mxGeometry relative="1" as="geometry"/>
                </mxCell>
                <mxCell id="269" value="" style="group" parent="1" vertex="1" connectable="0">
                    <mxGeometry x="137" y="865" width="160" height="355" as="geometry"/>
                </mxCell>
                <mxCell id="126" value="" style="rounded=1;whiteSpace=wrap;html=1;strokeColor=#FFFFFF;strokeWidth=1;fillColor=none;" parent="269" vertex="1">
                    <mxGeometry width="160" height="355" as="geometry"/>
                </mxCell>
                <mxCell id="127" value="Node::GetAttr" style="text;html=1;strokeColor=none;fillColor=none;align=center;verticalAlign=middle;whiteSpace=wrap;rounded=0;" parent="269" vertex="1">
                    <mxGeometry x="10" width="140" height="30" as="geometry"/>
                </mxCell>
                <mxCell id="129" value="Node-&amp;gt;GetSingleAttr" style="rounded=1;whiteSpace=wrap;html=1;" parent="269" vertex="1">
                    <mxGeometry x="20" y="55" width="120" height="60" as="geometry"/>
                </mxCell>
                <mxCell id="131" value="GetInherited" style="rounded=1;whiteSpace=wrap;html=1;" parent="269" vertex="1">
                    <mxGeometry x="20" y="165" width="120" height="60" as="geometry"/>
                </mxCell>
                <mxCell id="128" value="" style="edgeStyle=none;html=1;" parent="269" source="129" target="131" edge="1">
                    <mxGeometry relative="1" as="geometry"/>
                </mxCell>
                <mxCell id="133" value="Node-&amp;gt;GetParent" style="rounded=1;whiteSpace=wrap;html=1;" parent="269" vertex="1">
                    <mxGeometry x="20" y="275" width="120" height="60" as="geometry"/>
                </mxCell>
                <mxCell id="130" value="" style="edgeStyle=none;html=1;" parent="269" source="131" target="133" edge="1">
                    <mxGeometry relative="1" as="geometry"/>
                </mxCell>
                <mxCell id="270" value="" style="group" parent="1" vertex="1" connectable="0">
                    <mxGeometry x="137" y="1255" width="160" height="245" as="geometry"/>
                </mxCell>
                <mxCell id="185" value="" style="rounded=1;whiteSpace=wrap;html=1;strokeColor=#FFFFFF;strokeWidth=1;fillColor=none;" parent="270" vertex="1">
                    <mxGeometry width="160" height="245" as="geometry"/>
                </mxCell>
                <mxCell id="186" value="Node::GetAllDescendant" style="text;html=1;strokeColor=none;fillColor=none;align=center;verticalAlign=middle;whiteSpace=wrap;rounded=0;" parent="270" vertex="1">
                    <mxGeometry x="20" width="120" height="30" as="geometry"/>
                </mxCell>
                <mxCell id="188" value="Node-&amp;gt;GetSons" style="rounded=1;whiteSpace=wrap;html=1;" parent="270" vertex="1">
                    <mxGeometry x="20" y="55" width="120" height="60" as="geometry"/>
                </mxCell>
                <mxCell id="189" value="Node-&amp;gt;GetAllDescendant" style="rounded=1;whiteSpace=wrap;html=1;" parent="270" vertex="1">
                    <mxGeometry x="20" y="165" width="120" height="60" as="geometry"/>
                </mxCell>
                <mxCell id="187" value="" style="edgeStyle=none;html=1;" parent="270" source="188" target="189" edge="1">
                    <mxGeometry relative="1" as="geometry"/>
                </mxCell>
                <mxCell id="271" value="" style="group" parent="1" vertex="1" connectable="0">
                    <mxGeometry x="-893" y="1440" width="160" height="355" as="geometry"/>
                </mxCell>
                <mxCell id="200" value="" style="rounded=1;whiteSpace=wrap;html=1;strokeColor=#FFFFFF;strokeWidth=1;fillColor=none;" parent="271" vertex="1">
                    <mxGeometry width="160" height="355" as="geometry"/>
                </mxCell>
                <mxCell id="201" value="Node::AddNode" style="text;html=1;strokeColor=none;fillColor=none;align=center;verticalAlign=middle;whiteSpace=wrap;rounded=0;" parent="271" vertex="1">
                    <mxGeometry x="20" width="120" height="30" as="geometry"/>
                </mxCell>
                <mxCell id="203" value="Node-&amp;gt;GetSon" style="rounded=1;whiteSpace=wrap;html=1;" parent="271" vertex="1">
                    <mxGeometry x="20" y="55" width="120" height="60" as="geometry"/>
                </mxCell>
                <mxCell id="204" value="Node-&amp;gt;Remove" style="rounded=1;whiteSpace=wrap;html=1;" parent="271" vertex="1">
                    <mxGeometry x="20" y="165" width="120" height="60" as="geometry"/>
                </mxCell>
                <mxCell id="202" value="" style="edgeStyle=none;html=1;" parent="271" source="203" target="204" edge="1">
                    <mxGeometry relative="1" as="geometry"/>
                </mxCell>
                <mxCell id="205" value="obj_destroy" style="rounded=1;whiteSpace=wrap;html=1;" parent="271" vertex="1">
                    <mxGeometry x="20" y="275" width="120" height="60" as="geometry"/>
                </mxCell>
                <mxCell id="212" value="" style="edgeStyle=none;html=1;" parent="271" source="204" target="205" edge="1">
                    <mxGeometry relative="1" as="geometry"/>
                </mxCell>
                <mxCell id="272" value="" style="group" parent="1" vertex="1" connectable="0">
                    <mxGeometry x="-53" y="1035" width="160" height="355" as="geometry"/>
                </mxCell>
                <mxCell id="191" value="" style="rounded=1;whiteSpace=wrap;html=1;strokeColor=#FFFFFF;strokeWidth=1;fillColor=none;" parent="272" vertex="1">
                    <mxGeometry width="160" height="355" as="geometry"/>
                </mxCell>
                <mxCell id="192" value="Node::CreateSubTree" style="text;html=1;strokeColor=none;fillColor=none;align=center;verticalAlign=middle;whiteSpace=wrap;rounded=0;" parent="272" vertex="1">
                    <mxGeometry x="20" width="120" height="30" as="geometry"/>
                </mxCell>
                <mxCell id="194" value="GetSubDir" style="rounded=1;whiteSpace=wrap;html=1;" parent="272" vertex="1">
                    <mxGeometry x="20" y="55" width="120" height="60" as="geometry"/>
                </mxCell>
                <mxCell id="195" value="Node-&amp;gt;AddNode" style="rounded=1;whiteSpace=wrap;html=1;" parent="272" vertex="1">
                    <mxGeometry x="20" y="165" width="120" height="60" as="geometry"/>
                </mxCell>
                <mxCell id="193" value="" style="edgeStyle=none;html=1;" parent="272" source="194" target="195" edge="1">
                    <mxGeometry relative="1" as="geometry"/>
                </mxCell>
                <mxCell id="196" value="Node-&amp;gt;CreateSubTree" style="rounded=1;whiteSpace=wrap;html=1;" parent="272" vertex="1">
                    <mxGeometry x="20" y="275" width="120" height="60" as="geometry"/>
                </mxCell>
                <mxCell id="206" value="" style="edgeStyle=none;html=1;" parent="272" source="195" target="196" edge="1">
                    <mxGeometry relative="1" as="geometry"/>
                </mxCell>
                <mxCell id="273" value="" style="group" parent="1" vertex="1" connectable="0">
                    <mxGeometry x="337" y="560" width="160" height="140" as="geometry"/>
                </mxCell>
                <mxCell id="170" value="" style="rounded=1;whiteSpace=wrap;html=1;strokeColor=#2D7600;strokeWidth=1;fillColor=#60a917;fontColor=#ffffff;" parent="273" vertex="1">
                    <mxGeometry width="160" height="140" as="geometry"/>
                </mxCell>
                <mxCell id="171" value="Node::GetRoot" style="text;html=1;strokeColor=none;fillColor=none;align=center;verticalAlign=middle;whiteSpace=wrap;rounded=0;" parent="273" vertex="1">
                    <mxGeometry x="20" width="120" height="30" as="geometry"/>
                </mxCell>
                <mxCell id="173" value="Node-&amp;gt;GetParent" style="rounded=1;whiteSpace=wrap;html=1;" parent="273" vertex="1">
                    <mxGeometry x="20" y="55" width="120" height="60" as="geometry"/>
                </mxCell>
                <mxCell id="274" value="" style="group" parent="1" vertex="1" connectable="0">
                    <mxGeometry x="337" y="717.5" width="160" height="140" as="geometry"/>
                </mxCell>
                <mxCell id="175" value="" style="rounded=1;whiteSpace=wrap;html=1;strokeColor=#2D7600;strokeWidth=1;fillColor=#60a917;fontColor=#ffffff;" parent="274" vertex="1">
                    <mxGeometry width="160" height="140" as="geometry"/>
                </mxCell>
                <mxCell id="176" value="Node::GetSons" style="text;html=1;strokeColor=none;fillColor=none;align=center;verticalAlign=middle;whiteSpace=wrap;rounded=0;" parent="274" vertex="1">
                    <mxGeometry x="20" width="120" height="30" as="geometry"/>
                </mxCell>
                <mxCell id="177" value="Node-&amp;gt;Get" style="rounded=1;whiteSpace=wrap;html=1;" parent="274" vertex="1">
                    <mxGeometry x="20" y="55" width="120" height="60" as="geometry"/>
                </mxCell>
                <mxCell id="275" value="" style="group" parent="1" vertex="1" connectable="0">
                    <mxGeometry x="337" y="870" width="160" height="140" as="geometry"/>
                </mxCell>
                <mxCell id="197" value="" style="rounded=1;whiteSpace=wrap;html=1;strokeColor=#FFFFFF;strokeWidth=1;fillColor=none;" parent="275" vertex="1">
                    <mxGeometry width="160" height="140" as="geometry"/>
                </mxCell>
                <mxCell id="198" value="Node::DetachNode" style="text;html=1;strokeColor=none;fillColor=none;align=center;verticalAlign=middle;whiteSpace=wrap;rounded=0;" parent="275" vertex="1">
                    <mxGeometry x="20" width="120" height="30" as="geometry"/>
                </mxCell>
                <mxCell id="199" value="Node-&amp;gt;Remove" style="rounded=1;whiteSpace=wrap;html=1;" parent="275" vertex="1">
                    <mxGeometry x="20" y="55" width="120" height="60" as="geometry"/>
                </mxCell>
                <mxCell id="276" value="" style="group" parent="1" vertex="1" connectable="0">
                    <mxGeometry x="-53" y="560" width="160" height="420" as="geometry"/>
                </mxCell>
                <mxCell id="27" value="" style="rounded=1;whiteSpace=wrap;html=1;strokeColor=#FFFFFF;strokeWidth=1;fillColor=none;" parent="276" vertex="1">
                    <mxGeometry width="160" height="420" as="geometry"/>
                </mxCell>
                <mxCell id="6" value="Node-&amp;gt;GetMyAttr" style="rounded=1;whiteSpace=wrap;html=1;" parent="276" vertex="1">
                    <mxGeometry x="20" y="40" width="120" height="60" as="geometry"/>
                </mxCell>
                <mxCell id="7" value="Node-&amp;gt;AddAttr" style="rounded=1;whiteSpace=wrap;html=1;" parent="276" vertex="1">
                    <mxGeometry x="20" y="140" width="120" height="60" as="geometry"/>
                </mxCell>
                <mxCell id="21" value="" style="edgeStyle=none;html=1;" parent="276" source="6" target="7" edge="1">
                    <mxGeometry relative="1" as="geometry"/>
                </mxCell>
                <mxCell id="8" value="Attr-&amp;gt;Get" style="rounded=1;whiteSpace=wrap;html=1;" parent="276" vertex="1">
                    <mxGeometry x="20" y="240" width="120" height="60" as="geometry"/>
                </mxCell>
                <mxCell id="22" value="" style="edgeStyle=none;html=1;" parent="276" source="7" target="8" edge="1">
                    <mxGeometry relative="1" as="geometry"/>
                </mxCell>
                <mxCell id="9" value="Node-&amp;gt;GetParent" style="rounded=1;whiteSpace=wrap;html=1;" parent="276" vertex="1">
                    <mxGeometry x="20" y="340" width="120" height="60" as="geometry"/>
                </mxCell>
                <mxCell id="23" value="" style="edgeStyle=none;html=1;" parent="276" source="8" target="9" edge="1">
                    <mxGeometry relative="1" as="geometry"/>
                </mxCell>
                <mxCell id="54" value="Node::GetSingleAttr" style="text;html=1;strokeColor=none;fillColor=none;align=center;verticalAlign=middle;whiteSpace=wrap;rounded=0;" parent="276" vertex="1">
                    <mxGeometry x="20" width="120" height="30" as="geometry"/>
                </mxCell>
                <mxCell id="280" value="" style="group" parent="1" vertex="1" connectable="0">
                    <mxGeometry x="337" y="1045" width="160" height="220" as="geometry"/>
                </mxCell>
                <mxCell id="16" value="" style="rounded=1;whiteSpace=wrap;html=1;fillColor=none;" parent="280" vertex="1">
                    <mxGeometry width="160" height="220" as="geometry"/>
                </mxCell>
                <mxCell id="10" value="Node-&amp;gt;Get" style="rounded=1;whiteSpace=wrap;html=1;strokeColor=#FFFFFF;strokeWidth=1;" parent="280" vertex="1">
                    <mxGeometry x="20" y="40" width="120" height="60" as="geometry"/>
                </mxCell>
                <mxCell id="12" value="Attr-&amp;gt;GetProperty" style="rounded=1;whiteSpace=wrap;html=1;" parent="280" vertex="1">
                    <mxGeometry x="20" y="140" width="120" height="60" as="geometry"/>
                </mxCell>
                <mxCell id="13" value="" style="edgeStyle=none;html=1;" parent="280" source="10" target="12" edge="1">
                    <mxGeometry relative="1" as="geometry"/>
                </mxCell>
                <mxCell id="18" value="Node::GetMyAttr" style="text;html=1;strokeColor=none;fillColor=none;align=center;verticalAlign=middle;whiteSpace=wrap;rounded=0;" parent="280" vertex="1">
                    <mxGeometry x="50" width="60" height="30" as="geometry"/>
                </mxCell>
                <mxCell id="281" value="" style="group" parent="1" vertex="1" connectable="0">
                    <mxGeometry x="337" y="1305" width="160" height="220" as="geometry"/>
                </mxCell>
                <mxCell id="29" value="" style="rounded=1;whiteSpace=wrap;html=1;fillColor=none;" parent="281" vertex="1">
                    <mxGeometry width="160" height="220" as="geometry"/>
                </mxCell>
                <mxCell id="28" value="Node-&amp;gt;GetMyAttr" style="rounded=1;whiteSpace=wrap;html=1;" parent="281" vertex="1">
                    <mxGeometry x="20" y="40" width="120" height="60" as="geometry"/>
                </mxCell>
                <mxCell id="30" value="Node::AddAttr" style="text;html=1;strokeColor=none;fillColor=none;align=center;verticalAlign=middle;whiteSpace=wrap;rounded=0;" parent="281" vertex="1">
                    <mxGeometry x="47" width="60" height="30" as="geometry"/>
                </mxCell>
                <mxCell id="34" value="Attr-&amp;gt;SetProperty" style="rounded=1;whiteSpace=wrap;html=1;" parent="281" vertex="1">
                    <mxGeometry x="17" y="140" width="120" height="60" as="geometry"/>
                </mxCell>
                <mxCell id="35" value="" style="edgeStyle=none;html=1;startArrow=none;startFill=0;endArrow=classic;endFill=1;" parent="281" source="28" target="34" edge="1">
                    <mxGeometry relative="1" as="geometry"/>
                </mxCell>
            </root>
        </mxGraphModel>
    </diagram>
    <diagram id="n_qVs96X4X83VXekANd7" name="attr__define">
        <mxGraphModel dx="2987" dy="1263" grid="1" gridSize="10" guides="1" tooltips="1" connect="1" arrows="1" fold="1" page="1" pageScale="1" pageWidth="827" pageHeight="1169" math="0" shadow="0">
            <root>
                <mxCell id="0"/>
                <mxCell id="1" parent="0"/>
                <mxCell id="IIA33SFV05ZJ6z8Mu74s-26" value="" style="group" vertex="1" connectable="0" parent="1">
                    <mxGeometry x="-1323" y="560" width="160" height="910" as="geometry"/>
                </mxCell>
                <mxCell id="IIA33SFV05ZJ6z8Mu74s-2" value="" style="rounded=1;whiteSpace=wrap;html=1;strokeColor=#FFFFFF;strokeWidth=1;fillColor=none;" vertex="1" parent="IIA33SFV05ZJ6z8Mu74s-26">
                    <mxGeometry width="160" height="910" as="geometry"/>
                </mxCell>
                <mxCell id="IIA33SFV05ZJ6z8Mu74s-3" value="Attr::Load" style="text;html=1;strokeColor=none;fillColor=none;align=center;verticalAlign=middle;whiteSpace=wrap;rounded=0;" vertex="1" parent="IIA33SFV05ZJ6z8Mu74s-26">
                    <mxGeometry x="20" width="120" height="30" as="geometry"/>
                </mxCell>
                <mxCell id="IIA33SFV05ZJ6z8Mu74s-4" value="Attr-&amp;gt;GetProperty" style="rounded=1;whiteSpace=wrap;html=1;" vertex="1" parent="IIA33SFV05ZJ6z8Mu74s-26">
                    <mxGeometry x="20" y="55" width="120" height="60" as="geometry"/>
                </mxCell>
                <mxCell id="IIA33SFV05ZJ6z8Mu74s-5" value="FormatIsAscii" style="rounded=1;whiteSpace=wrap;html=1;" vertex="1" parent="IIA33SFV05ZJ6z8Mu74s-26">
                    <mxGeometry x="20" y="165" width="120" height="60" as="geometry"/>
                </mxCell>
                <mxCell id="IIA33SFV05ZJ6z8Mu74s-6" value="" style="edgeStyle=none;html=1;" edge="1" parent="IIA33SFV05ZJ6z8Mu74s-26" source="IIA33SFV05ZJ6z8Mu74s-4" target="IIA33SFV05ZJ6z8Mu74s-5">
                    <mxGeometry relative="1" as="geometry"/>
                </mxCell>
                <mxCell id="IIA33SFV05ZJ6z8Mu74s-7" value="ReadAttr" style="rounded=1;whiteSpace=wrap;html=1;" vertex="1" parent="IIA33SFV05ZJ6z8Mu74s-26">
                    <mxGeometry x="20" y="275" width="120" height="60" as="geometry"/>
                </mxCell>
                <mxCell id="IIA33SFV05ZJ6z8Mu74s-8" value="" style="edgeStyle=none;html=1;" edge="1" parent="IIA33SFV05ZJ6z8Mu74s-26" source="IIA33SFV05ZJ6z8Mu74s-5" target="IIA33SFV05ZJ6z8Mu74s-7">
                    <mxGeometry relative="1" as="geometry"/>
                </mxCell>
                <mxCell id="IIA33SFV05ZJ6z8Mu74s-9" value="Node-&amp;gt;GetArrayInfo" style="rounded=1;whiteSpace=wrap;html=1;" vertex="1" parent="IIA33SFV05ZJ6z8Mu74s-26">
                    <mxGeometry x="20" y="385" width="120" height="60" as="geometry"/>
                </mxCell>
                <mxCell id="IIA33SFV05ZJ6z8Mu74s-10" value="" style="edgeStyle=none;html=1;" edge="1" parent="IIA33SFV05ZJ6z8Mu74s-26" source="IIA33SFV05ZJ6z8Mu74s-7" target="IIA33SFV05ZJ6z8Mu74s-9">
                    <mxGeometry relative="1" as="geometry"/>
                </mxCell>
                <mxCell id="IIA33SFV05ZJ6z8Mu74s-11" value="read_array" style="rounded=1;whiteSpace=wrap;html=1;" vertex="1" parent="IIA33SFV05ZJ6z8Mu74s-26">
                    <mxGeometry x="20" y="495" width="120" height="60" as="geometry"/>
                </mxCell>
                <mxCell id="IIA33SFV05ZJ6z8Mu74s-12" value="" style="edgeStyle=none;html=1;" edge="1" parent="IIA33SFV05ZJ6z8Mu74s-26" source="IIA33SFV05ZJ6z8Mu74s-9" target="IIA33SFV05ZJ6z8Mu74s-11">
                    <mxGeometry relative="1" as="geometry"/>
                </mxCell>
                <mxCell id="IIA33SFV05ZJ6z8Mu74s-13" value="Node-&amp;gt;ReplaceAttrValues" style="rounded=1;whiteSpace=wrap;html=1;" vertex="1" parent="IIA33SFV05ZJ6z8Mu74s-26">
                    <mxGeometry x="20" y="605" width="120" height="60" as="geometry"/>
                </mxCell>
                <mxCell id="IIA33SFV05ZJ6z8Mu74s-14" value="" style="edgeStyle=none;html=1;" edge="1" parent="IIA33SFV05ZJ6z8Mu74s-26" source="IIA33SFV05ZJ6z8Mu74s-11" target="IIA33SFV05ZJ6z8Mu74s-13">
                    <mxGeometry relative="1" as="geometry"/>
                </mxCell>
                <mxCell id="IIA33SFV05ZJ6z8Mu74s-15" value="GetArrayDescName" style="rounded=1;whiteSpace=wrap;html=1;" vertex="1" parent="IIA33SFV05ZJ6z8Mu74s-26">
                    <mxGeometry x="20" y="715" width="120" height="60" as="geometry"/>
                </mxCell>
                <mxCell id="IIA33SFV05ZJ6z8Mu74s-16" value="" style="edgeStyle=none;html=1;" edge="1" parent="IIA33SFV05ZJ6z8Mu74s-26" source="IIA33SFV05ZJ6z8Mu74s-13" target="IIA33SFV05ZJ6z8Mu74s-15">
                    <mxGeometry relative="1" as="geometry"/>
                </mxCell>
                <mxCell id="IIA33SFV05ZJ6z8Mu74s-17" value="Node-&amp;gt;AddAttr" style="rounded=1;whiteSpace=wrap;html=1;" vertex="1" parent="IIA33SFV05ZJ6z8Mu74s-26">
                    <mxGeometry x="20" y="825" width="120" height="60" as="geometry"/>
                </mxCell>
                <mxCell id="IIA33SFV05ZJ6z8Mu74s-18" value="" style="edgeStyle=none;html=1;" edge="1" parent="IIA33SFV05ZJ6z8Mu74s-26" source="IIA33SFV05ZJ6z8Mu74s-15" target="IIA33SFV05ZJ6z8Mu74s-17">
                    <mxGeometry relative="1" as="geometry"/>
                </mxCell>
                <mxCell id="jjvx9hOgLp4u1EcDxDik-39" value="" style="group" vertex="1" connectable="0" parent="1">
                    <mxGeometry x="-1130" y="560" width="160" height="140" as="geometry"/>
                </mxCell>
                <mxCell id="jjvx9hOgLp4u1EcDxDik-2" value="" style="rounded=1;whiteSpace=wrap;html=1;strokeColor=#FFFFFF;strokeWidth=1;fillColor=none;container=0;" vertex="1" parent="jjvx9hOgLp4u1EcDxDik-39">
                    <mxGeometry width="160" height="140" as="geometry"/>
                </mxCell>
                <mxCell id="jjvx9hOgLp4u1EcDxDik-3" value="Attr::GetProperty" style="text;html=1;strokeColor=none;fillColor=none;align=center;verticalAlign=middle;whiteSpace=wrap;rounded=0;container=0;" vertex="1" parent="jjvx9hOgLp4u1EcDxDik-39">
                    <mxGeometry x="20" width="120" height="30" as="geometry"/>
                </mxCell>
                <mxCell id="jjvx9hOgLp4u1EcDxDik-4" value="Node-&amp;gt;GetProperty" style="rounded=1;whiteSpace=wrap;html=1;container=0;" vertex="1" parent="jjvx9hOgLp4u1EcDxDik-39">
                    <mxGeometry x="20" y="55" width="120" height="60" as="geometry"/>
                </mxCell>
                <mxCell id="jjvx9hOgLp4u1EcDxDik-40" value="" style="group;" vertex="1" connectable="0" parent="1">
                    <mxGeometry x="-1130" y="730" width="160" height="140" as="geometry"/>
                </mxCell>
                <mxCell id="jjvx9hOgLp4u1EcDxDik-16" value="" style="rounded=1;whiteSpace=wrap;html=1;strokeColor=#FFFFFF;strokeWidth=1;fillColor=none;container=0;" vertex="1" parent="jjvx9hOgLp4u1EcDxDik-40">
                    <mxGeometry width="160" height="140" as="geometry"/>
                </mxCell>
                <mxCell id="jjvx9hOgLp4u1EcDxDik-17" value="Attr::SetProperty" style="text;html=1;strokeColor=none;fillColor=none;align=center;verticalAlign=middle;whiteSpace=wrap;rounded=0;container=0;" vertex="1" parent="jjvx9hOgLp4u1EcDxDik-40">
                    <mxGeometry x="20" width="120" height="30" as="geometry"/>
                </mxCell>
                <mxCell id="jjvx9hOgLp4u1EcDxDik-19" value="" style="strokeWidth=2;html=1;shape=mxgraph.flowchart.terminator;whiteSpace=wrap;fillColor=none;" vertex="1" parent="jjvx9hOgLp4u1EcDxDik-40">
                    <mxGeometry x="40" y="60" width="80" height="40" as="geometry"/>
                </mxCell>
                <mxCell id="jjvx9hOgLp4u1EcDxDik-41" value="" style="group" vertex="1" connectable="0" parent="1">
                    <mxGeometry x="-930" y="560" width="160" height="240" as="geometry"/>
                </mxCell>
                <mxCell id="jjvx9hOgLp4u1EcDxDik-20" value="" style="rounded=1;whiteSpace=wrap;html=1;strokeColor=#FFFFFF;strokeWidth=1;fillColor=none;container=0;" vertex="1" parent="jjvx9hOgLp4u1EcDxDik-41">
                    <mxGeometry width="160" height="240" as="geometry"/>
                </mxCell>
                <mxCell id="jjvx9hOgLp4u1EcDxDik-21" value="Attr::CleanUp" style="text;html=1;strokeColor=none;fillColor=none;align=center;verticalAlign=middle;whiteSpace=wrap;rounded=0;container=0;" vertex="1" parent="jjvx9hOgLp4u1EcDxDik-41">
                    <mxGeometry x="20" width="120" height="30" as="geometry"/>
                </mxCell>
                <mxCell id="jjvx9hOgLp4u1EcDxDik-22" value="Attr-&amp;gt;GetProperty" style="rounded=1;whiteSpace=wrap;html=1;container=0;" vertex="1" parent="jjvx9hOgLp4u1EcDxDik-41">
                    <mxGeometry x="20" y="55" width="120" height="60" as="geometry"/>
                </mxCell>
                <mxCell id="jjvx9hOgLp4u1EcDxDik-23" value="FILE_DELETE" style="rounded=1;whiteSpace=wrap;html=1;container=0;" vertex="1" parent="jjvx9hOgLp4u1EcDxDik-41">
                    <mxGeometry x="20" y="165" width="120" height="60" as="geometry"/>
                </mxCell>
                <mxCell id="jjvx9hOgLp4u1EcDxDik-24" value="" style="edgeStyle=none;html=1;" edge="1" parent="jjvx9hOgLp4u1EcDxDik-41" source="jjvx9hOgLp4u1EcDxDik-22" target="jjvx9hOgLp4u1EcDxDik-23">
                    <mxGeometry relative="1" as="geometry"/>
                </mxCell>
                <mxCell id="jjvx9hOgLp4u1EcDxDik-42" value="" style="group" vertex="1" connectable="0" parent="1">
                    <mxGeometry x="-930" y="850" width="160" height="240" as="geometry"/>
                </mxCell>
                <mxCell id="jjvx9hOgLp4u1EcDxDik-27" value="" style="rounded=1;whiteSpace=wrap;html=1;strokeColor=#FFFFFF;strokeWidth=1;fillColor=none;container=0;" vertex="1" parent="jjvx9hOgLp4u1EcDxDik-42">
                    <mxGeometry width="160" height="240" as="geometry"/>
                </mxCell>
                <mxCell id="jjvx9hOgLp4u1EcDxDik-28" value="Attr::Save" style="text;html=1;strokeColor=none;fillColor=none;align=center;verticalAlign=middle;whiteSpace=wrap;rounded=0;container=0;" vertex="1" parent="jjvx9hOgLp4u1EcDxDik-42">
                    <mxGeometry x="20" width="120" height="30" as="geometry"/>
                </mxCell>
                <mxCell id="jjvx9hOgLp4u1EcDxDik-29" value="Attr-&amp;gt;GetProperty" style="rounded=1;whiteSpace=wrap;html=1;container=0;" vertex="1" parent="jjvx9hOgLp4u1EcDxDik-42">
                    <mxGeometry x="20" y="55" width="120" height="60" as="geometry"/>
                </mxCell>
                <mxCell id="jjvx9hOgLp4u1EcDxDik-30" value="WriteAttr" style="rounded=1;whiteSpace=wrap;html=1;container=0;" vertex="1" parent="jjvx9hOgLp4u1EcDxDik-42">
                    <mxGeometry x="20" y="165" width="120" height="60" as="geometry"/>
                </mxCell>
                <mxCell id="jjvx9hOgLp4u1EcDxDik-31" value="" style="edgeStyle=none;html=1;" edge="1" parent="jjvx9hOgLp4u1EcDxDik-42" source="jjvx9hOgLp4u1EcDxDik-29" target="jjvx9hOgLp4u1EcDxDik-30">
                    <mxGeometry relative="1" as="geometry"/>
                </mxCell>
                <mxCell id="jjvx9hOgLp4u1EcDxDik-43" value="" style="group" vertex="1" connectable="0" parent="1">
                    <mxGeometry x="-1130" y="910" width="160" height="355" as="geometry"/>
                </mxCell>
                <mxCell id="jjvx9hOgLp4u1EcDxDik-9" value="" style="rounded=1;whiteSpace=wrap;html=1;strokeColor=#FFFFFF;strokeWidth=1;fillColor=none;container=0;" vertex="1" parent="jjvx9hOgLp4u1EcDxDik-43">
                    <mxGeometry width="160" height="355" as="geometry"/>
                </mxCell>
                <mxCell id="jjvx9hOgLp4u1EcDxDik-10" value="Attr::Get" style="text;html=1;strokeColor=none;fillColor=none;align=center;verticalAlign=middle;whiteSpace=wrap;rounded=0;container=0;" vertex="1" parent="jjvx9hOgLp4u1EcDxDik-43">
                    <mxGeometry x="20" width="120" height="30" as="geometry"/>
                </mxCell>
                <mxCell id="jjvx9hOgLp4u1EcDxDik-11" value="Attr-&amp;gt;GetProperty" style="rounded=1;whiteSpace=wrap;html=1;container=0;" vertex="1" parent="jjvx9hOgLp4u1EcDxDik-43">
                    <mxGeometry x="20" y="55" width="120" height="60" as="geometry"/>
                </mxCell>
                <mxCell id="jjvx9hOgLp4u1EcDxDik-12" value="CompareData" style="rounded=1;whiteSpace=wrap;html=1;container=0;" vertex="1" parent="jjvx9hOgLp4u1EcDxDik-43">
                    <mxGeometry x="20" y="165" width="120" height="60" as="geometry"/>
                </mxCell>
                <mxCell id="jjvx9hOgLp4u1EcDxDik-13" value="" style="edgeStyle=none;html=1;" edge="1" parent="jjvx9hOgLp4u1EcDxDik-43" source="jjvx9hOgLp4u1EcDxDik-11" target="jjvx9hOgLp4u1EcDxDik-12">
                    <mxGeometry relative="1" as="geometry"/>
                </mxCell>
                <mxCell id="jjvx9hOgLp4u1EcDxDik-14" value="Attr-&amp;gt;Load" style="rounded=1;whiteSpace=wrap;html=1;container=0;" vertex="1" parent="jjvx9hOgLp4u1EcDxDik-43">
                    <mxGeometry x="20" y="275" width="120" height="60" as="geometry"/>
                </mxCell>
                <mxCell id="jjvx9hOgLp4u1EcDxDik-15" value="" style="edgeStyle=none;html=1;" edge="1" parent="jjvx9hOgLp4u1EcDxDik-43" source="jjvx9hOgLp4u1EcDxDik-12" target="jjvx9hOgLp4u1EcDxDik-14">
                    <mxGeometry relative="1" as="geometry"/>
                </mxCell>
                <mxCell id="jjvx9hOgLp4u1EcDxDik-44" value="" style="group" vertex="1" connectable="0" parent="1">
                    <mxGeometry x="-1130" y="1310" width="160" height="140" as="geometry"/>
                </mxCell>
                <mxCell id="jjvx9hOgLp4u1EcDxDik-32" value="" style="rounded=1;whiteSpace=wrap;html=1;strokeColor=#FFFFFF;strokeWidth=1;fillColor=none;container=0;" vertex="1" parent="jjvx9hOgLp4u1EcDxDik-44">
                    <mxGeometry width="160" height="140" as="geometry"/>
                </mxCell>
                <mxCell id="jjvx9hOgLp4u1EcDxDik-33" value="Attr::Init" style="text;html=1;strokeColor=none;fillColor=none;align=center;verticalAlign=middle;whiteSpace=wrap;rounded=0;container=0;" vertex="1" parent="jjvx9hOgLp4u1EcDxDik-44">
                    <mxGeometry x="20" width="120" height="30" as="geometry"/>
                </mxCell>
                <mxCell id="jjvx9hOgLp4u1EcDxDik-34" value="Attr-&amp;gt;SetProperty" style="rounded=1;whiteSpace=wrap;html=1;container=0;" vertex="1" parent="jjvx9hOgLp4u1EcDxDik-44">
                    <mxGeometry x="20" y="55" width="120" height="60" as="geometry"/>
                </mxCell>
            </root>
        </mxGraphModel>
    </diagram>
    <diagram id="YLF6iJfRVPVcGFJMUhFz" name="map__define">
        <mxGraphModel dx="1000" dy="947" grid="1" gridSize="10" guides="1" tooltips="1" connect="1" arrows="1" fold="1" page="1" pageScale="1" pageWidth="827" pageHeight="1169" math="0" shadow="0">
            <root>
                <mxCell id="0"/>
                <mxCell id="1" parent="0"/>
            </root>
        </mxGraphModel>
    </diagram>
</mxfile>